<?xml version="1.0" encoding="utf-8"?>
<!-- Generator: Adobe Illustrator 18.1.1, SVG Export Plug-In . SVG Version: 6.00 Build 0)  -->
<svg version="1.1" id="Layer_1" xmlns="http://www.w3.org/2000/svg" xmlns:xlink="http://www.w3.org/1999/xlink" x="0px" y="0px"
	 viewBox="0 0 454 146" enable-background="new 0 0 454 146" xml:space="preserve">
<g>
	<rect x="150.1" y="14.3" fill="#1A325C" width="7" height="51.1"/>
	<path fill="#1A325C" d="M157.1,14.3h13.2c2.6,0.1,8.3,0.1,13.8,4.8c3.9,3.3,8,9.3,8,20.8c0,2.8-0.2,6-0.9,8.8
		c-0.9,3.6-3.8,12.8-14.7,15.8c-2.2,0.7-4.1,0.9-8.5,0.9c-1.7,0-3.3,0-4.9,0.1h-5.9v-5.9h12.1c1.9-0.1,7.6-0.2,11.5-4.8
		c2.3-2.6,4.4-7.1,4.4-14.8c0-4.7-0.9-10.4-4-14.3c-0.8-0.9-1.6-1.7-2.5-2.4c-1.9-1.4-3.5-1.9-4.3-2.1c-2.4-0.7-4.3-0.8-9.1-0.8h-8
		V14.3z"/>
</g>
<rect x="150.1" y="14.3" fill="#1A325C" width="7" height="51.1"/>
<path fill="#1A325C" d="M157.1,14.3h13.2c2.6,0.1,8.3,0.1,13.8,4.8c3.9,3.3,8,9.3,8,20.8c0,2.8-0.2,6-0.9,8.8
	c-0.9,3.6-3.8,12.8-14.7,15.8c-2.2,0.7-4.1,0.9-8.5,0.9c-1.7,0-3.3,0-4.9,0.1h-5.9v-5.9h12.1c1.9-0.1,7.6-0.2,11.5-4.8
	c2.3-2.6,4.4-7.1,4.4-14.8c0-4.7-0.9-10.4-4-14.3c-0.8-0.9-1.6-1.7-2.5-2.4c-1.9-1.4-3.5-1.9-4.3-2.1c-2.4-0.7-4.3-0.8-9.1-0.8h-8
	V14.3z"/>
<g>
	<polygon fill="#1A325C" points="395.2,122.5 393.2,116.8 385.7,95.4 377.9,116.8 375.7,122.5 370,138.1 362.8,138.1 382.2,87 
		389.3,87 407.9,138.1 400.8,138.1 	"/>
	<polyline fill="#1A325C" points="377.9,116.8 393.2,116.8 395.2,122.5 375.7,122.5 	"/>
</g>
<path fill="#1A325C" d="M232.3,51.1c-0.1,7-5.9,9-8,9.6c-2,0.6-4,0.6-4.7,0.6c-6,0-9.4-2.2-11.2-4.1c-3.3-3.4-3.4-7.7-3.5-9.2
	l-7.3,0.9c0.1,1.6,0.5,6.2,3.5,10.3c1.1,1.4,2.5,2.8,4.1,3.8c5.4,3.5,12.3,3.5,14,3.5c8.7,0,13.3-2.8,16.1-5.5
	c4-3.9,4.3-8.5,4.3-10.5c0-3.6-1.2-5.9-1.9-7.1c-3.1-5.2-9.3-6.6-10.9-6.9c-1.3-0.4-2.7-0.7-4-1l-5.6-1.4c-3-0.7-6.9-1.5-8.9-4.2
	c-1.1-1.4-1.2-3-1.2-3.8c0-1.7,0.7-3.4,1.7-4.6c2.2-2.7,6.7-3.4,9.9-3.4c8.4,0,11.7,4.2,12.7,7.8c0.3,1,0.4,2,0.5,3l6.9-0.4
	c-0.4-2.6-1-5-2.4-7.3c-0.6-1-1.7-2.8-4.1-4.6c-4-3-8.8-3.8-13.7-3.8c-2.1,0-8.5-0.1-13.7,4.2c-3,2.6-4.8,5.9-4.8,10
	c0,3,0.8,7.7,6.9,11c3.4,1.9,7.5,2.8,11.2,3.5l4.4,0.9c2.4,0.5,5.1,1.1,7.1,2.7C230.8,46.2,232.2,47.7,232.3,51.1z"/>
<polygon fill="#1A325C" points="111.8,65.4 143.3,65.4 143.3,59.3 118.6,59.3 118.6,14.3 111.8,14.3 "/>
<polygon fill="#1A325C" points="68.1,65.4 104.2,65.4 104.2,59.4 74.6,59.4 74.6,42 99.5,42 99.5,36 74.6,36 74.6,20.3 103.3,20.3 
	103.3,14.3 68.1,14.3 "/>
<polygon fill="#1A325C" points="9,65.4 15.8,65.4 15.8,39.7 40,39.7 40,33.8 15.8,33.8 15.8,12.6 44.9,12.6 44.9,6.5 9,6.5 "/>
<rect x="52.6" y="14.3" fill="#1A325C" width="6.9" height="51.1"/>
<polygon fill="#1A325C" points="97.5,132.2 67.9,132.2 67.9,114.7 92.8,114.7 92.8,108.8 67.9,108.8 67.9,93 96.6,93 96.6,87 
	61.4,87 61.4,138.1 97.5,138.1 "/>
<path fill="#1A325C" d="M143.4,123.4c0-3.6-1.2-5.9-1.9-7.1c-3.1-5.2-9.3-6.6-10.9-6.9c-1.3-0.4-2.7-0.7-4-1l-5.6-1.4
	c-3-0.7-6.9-1.5-8.9-4.2c-1.1-1.4-1.2-3-1.2-3.8c0-1.7,0.7-3.4,1.7-4.6c2.2-2.7,6.7-3.4,9.9-3.4c8.4,0,11.7,4.2,12.7,7.8
	c0.3,1,0.4,2,0.5,3l6.9-0.4c-0.4-2.6-1-5-2.4-7.3c-0.6-1-1.7-2.8-4.1-4.6c-4-3-8.8-3.8-13.7-3.8c-2.1,0-8.5-0.1-13.7,4.2
	c-3,2.6-4.8,5.9-4.8,10c0,3,0.8,7.7,6.9,11c3.4,1.9,7.5,2.8,11.2,3.5l4.4,0.9c2.4,0.5,5.1,1.1,7.1,2.7c1.2,0.9,2.5,2.4,2.6,5.8
	c-0.1,7-5.9,9-8,9.6c-2,0.6-4,0.6-4.7,0.6c-6,0-9.4-2.2-11.2-4.1c-3.3-3.4-3.4-7.7-3.5-9.2l-7.3,0.9c0.1,1.6,0.5,6.2,3.5,10.3
	c1.1,1.4,2.5,2.8,4.1,3.8c5.4,3.5,12.3,3.5,14,3.5c8.7,0,13.3-2.8,16.1-5.5C143.1,130,143.4,125.5,143.4,123.4z"/>
<rect x="151.7" y="87" fill="#1A325C" width="6.9" height="51.1"/>
<polygon fill="#1A325C" points="253.5,132.2 223.9,132.2 223.9,114.7 248.8,114.7 248.8,108.8 223.9,108.8 223.9,93 252.6,93 
	252.6,87 217.4,87 217.4,138.1 253.5,138.1 "/>
<polygon fill="#1A325C" points="344.7,87 307.3,87 307.3,93 322.7,93 322.7,138.1 329.5,138.1 329.5,93 344.7,93 "/>
<rect x="350.5" y="87" fill="#1A325C" width="6.9" height="51.1"/>
<polygon fill="#1A325C" points="445.1,132 420.4,132 420.4,87 413.6,87 413.6,138.1 445.1,138.1 "/>
<g>
	<polygon fill="#1A325C" points="294.9,87 294.9,87.2 294.9,127.6 267.5,87 261.1,87 261.1,138.1 267.5,138.1 267.5,137.7 
		267.5,97.5 294.9,138.1 301,138.1 301,87 	"/>
</g>
<rect x="168.3" y="87" fill="#1A325C" width="7" height="51.1"/>
<path fill="#1A325C" d="M175.4,87h13.2c2.6,0.1,8.3,0.1,13.8,4.8c3.9,3.3,8,9.3,8,20.8c0,2.8-0.2,6-0.9,8.8
	c-0.9,3.6-3.8,12.8-14.7,15.8c-2.2,0.7-4.1,0.9-8.5,0.9c-1.7,0-3.3,0-4.9,0.1h-5.9v-5.9h12.1c1.9-0.1,7.6-0.2,11.5-4.8
	c2.3-2.6,4.4-7.1,4.4-14.8c0-4.7-0.9-10.4-4-14.3c-0.8-0.9-1.6-1.7-2.5-2.4c-1.9-1.4-3.5-1.9-4.3-2.1c-2.4-0.7-4.3-0.8-9.1-0.8h-8
	V87z"/>
<rect x="9" y="79.3" fill="#1A325C" width="6.9" height="58.8"/>
<path fill="#1A325C" d="M15.9,114.9h16.4l14.9,23.2h8.1L40,114.4c3.2-0.6,4.6-1.2,6-2c7.5-4,7.8-12.5,7.8-15c0-6.1-2-9.8-3.6-11.8
	c-2.5-3.2-6.2-5.8-14.3-6.2c-1.1,0-5.8,0-5.8,0H15.9V85h14.6c3.9,0,7.9-0.2,11.3,1.9c5,3.2,5.2,8.5,5.2,10.5c0,2.6-0.6,4.9-2,7.1
	c-3.3,4.7-9.1,4.7-14,4.7h-15L15.9,114.9z"/>
</svg>
